<svg id="Layer_1" data-name="Layer 1" xmlns="http://www.w3.org/2000/svg" xmlns:xlink="http://www.w3.org/1999/xlink" viewBox="0 0 419.08 297.86"><defs><style>.cls-1{fill:url(#linear-gradient);}</style><linearGradient id="linear-gradient" x1="750.19" y1="548.57" x2="1169.27" y2="548.57" gradientUnits="userSpaceOnUse"><stop offset="0" stop-color="#1c2866"/><stop offset="0.27" stop-color="#1c458a"/><stop offset="0.52" stop-color="#1c63af"/><stop offset="1" stop-color="#01abec"/></linearGradient></defs><title>fpvgoogle</title><path class="cls-1" d="M1048.73,549.37c-64,70.2-110.38,71.09-173.51,72.41-11,0-23,.44-35.33.88-81.24,4.42-89.18-33.55-89.18-34,0,0-1.77-6.18,4.85-14.57,26.5-31.79,33.56-36.21,35.77-36.21.44,0,.88,0,.88.44l.44.45a5.45,5.45,0,0,1,.88,1.32c.45,2.65,4,15.45,15.9,26.93q23.18,22.51,66.23,22.52c37.08,0,84.33-12.8,140.4-38,.44,0,9.71-4.86,19.87-4.86C1036.81,546.72,1046.08,548.05,1048.73,549.37Zm25.17,42.39c-2.65-8-16.34-30.47-20.31-33.12-66.23,72.41-115.24,73.3-177,74.18-11,0-23,.44-34.88.88-4.41,0-8.39.44-12.36.44-56.52,0-73.74-20.75-79-31.79-.89,16.78,5.74,37.09,19,57.84,11,16.34,26.49,20.75,38,19.87,11.92-.88,18.1-6.18,29.14-7.95,11.92-1.76,26.93,10.6,26.93,10.6,11.93,8.39,33.12,18.1,68.44,13.69C1013.85,686.68,1077,601.91,1073.9,591.76Zm91.89-176.17c-16.33-34-95.81-4.41-111.7,4.42-18.55,10.15-57,6.62-57,6.62-85.65-22.08-162,66.23-189.85,96.69-10.15,11-7.06,16.34-2.21,24.29,1.33,2.2,3.09,4,5.3,4.41,8,1.33,102.87-122.3,177-106,2.65.44,49.45,4.85,68.43-7.07,22.08-13.68,85.22-41.06,97.58-19.42,8.39,12.8-14.57,46.36-41.06,74.17-22.52,24.28-55.19,53.87-55.19,53.87s5.3,8.38,7.5,11C1066,560.41,1081,586,1081,586s80.8-100.67,87-144.38v-.88c0-1.33.44-2.21.44-3.53C1168.88,437.67,1171.09,427.07,1165.79,415.59Z" transform="translate(-750.19 -399.64)"/></svg>